<?xml version="1.0" encoding="utf-8"?>
<!-- Generator: Adobe Illustrator 16.0.0, SVG Export Plug-In . SVG Version: 6.00 Build 0)  -->
<!DOCTYPE svg PUBLIC "-//W3C//DTD SVG 1.1//EN" "http://www.w3.org/Graphics/SVG/1.1/DTD/svg11.dtd">
<svg version="1.1" id="图层_1" xmlns="http://www.w3.org/2000/svg" xmlns:xlink="http://www.w3.org/1999/xlink" x="0px" y="0px"
	 width="112px" height="32px" viewBox="0 0 112 32" enable-background="new 0 0 112 32" xml:space="preserve">
<path fill="#FFFFFF" d="M31.704,31.943H16.095c-8.778,0-16.104-6.971-16.237-15.748C-0.279,7.26,6.949-0.051,15.852-0.051h15.852
	l0,0c0,4.167-3.377,7.544-7.543,7.544h-8.128c-4.6,0-8.493,3.599-8.629,8.197c-0.142,4.776,3.703,8.708,8.449,8.708h8.308
	C28.327,24.399,31.704,27.776,31.704,31.943L31.704,31.943z"/>
<path fill="#FFFFFF" d="M27.932,19.449H16.668c-2.083,0-3.771-1.688-3.771-3.771l0,0c0-2.084,1.689-3.773,3.771-3.773h11.264
	c2.084,0,3.771,1.689,3.771,3.773l0,0C31.704,17.762,30.016,19.449,27.932,19.449z"/>
<g>
	<path fill="#3BB8AF" d="M29.387,16.313h-3.844c-0.38,0-0.689-0.308-0.689-0.688l0,0c0-0.381,0.31-0.689,0.689-0.689h3.844
		c0.38,0,0.69,0.309,0.69,0.689l0,0C30.077,16.004,29.767,16.313,29.387,16.313z"/>
	<path fill="#3BB8AF" d="M26.776,17.546v-3.845c0-0.38,0.307-0.689,0.688-0.689l0,0c0.381,0,0.689,0.309,0.689,0.689v3.845
		c0,0.381-0.308,0.689-0.689,0.689l0,0C27.083,18.235,26.776,17.927,26.776,17.546z"/>
</g>
<g>
	<path fill="#FFFFFF" d="M61.771,16.325c-1.279,0-2.375-0.449-3.287-1.345c-0.91-0.896-1.365-1.981-1.365-3.253
		c0-1.273,0.455-2.36,1.365-3.265c0.912-0.902,2.008-1.356,3.287-1.356h2.84c0,0.731-0.195,1.293-0.59,1.683
		s-0.866,0.586-1.416,0.586h-0.834c-0.637,0-1.176,0.231-1.621,0.698s-0.667,1.018-0.667,1.654c0,0.636,0.222,1.184,0.667,1.642
		c0.445,0.46,0.984,0.689,1.621,0.689h0.834c0.55,0,1.021,0.194,1.416,0.586c0.395,0.39,0.59,0.949,0.59,1.681H61.771z
		 M64.021,12.255c-0.395,0.392-0.866,0.587-1.416,0.587h-1.441c-0.318,0-0.586-0.106-0.803-0.318
		c-0.217-0.216-0.326-0.483-0.326-0.802c0-0.32,0.109-0.59,0.326-0.813c0.217-0.221,0.484-0.331,0.803-0.331h3.447
		C64.611,11.304,64.416,11.864,64.021,12.255z"/>
	<path fill="#FFFFFF" d="M72.93,15.707c-0.412-0.411-0.619-0.904-0.619-1.475v-2.505c0-0.637-0.223-1.188-0.667-1.654
		s-0.985-0.698-1.62-0.698c-0.638,0-1.18,0.231-1.627,0.698c-0.448,0.467-0.673,1.018-0.673,1.654v2.505
		c0,0.57-0.206,1.063-0.618,1.475s-0.994,0.618-1.746,0.618v-4.598c0-1.279,0.457-2.37,1.371-3.271
		c0.916-0.898,2.012-1.351,3.293-1.351c1.279,0,2.374,0.454,3.285,1.356c0.911,0.904,1.365,1.991,1.365,3.265v4.598
		C73.923,16.325,73.34,16.118,72.93,15.707z"/>
	<path fill="#FFFFFF" d="M80.227,16.325c-1.279,0-2.375-0.449-3.286-1.345c-0.911-0.896-1.366-1.981-1.366-3.253
		c0-1.273,0.455-2.36,1.366-3.265c0.911-0.902,2.007-1.356,3.286-1.356h2.841c0,0.731-0.196,1.293-0.591,1.683
		c-0.394,0.39-0.866,0.586-1.415,0.586h-0.835c-0.636,0-1.176,0.231-1.621,0.698s-0.668,1.018-0.668,1.654
		c0,0.636,0.223,1.184,0.668,1.642c0.445,0.46,0.985,0.689,1.621,0.689h0.835c0.549,0,1.021,0.194,1.415,0.586
		c0.395,0.39,0.591,0.949,0.591,1.681H80.227z M82.477,12.255c-0.394,0.392-0.866,0.587-1.415,0.587h-1.442
		c-0.318,0-0.586-0.106-0.803-0.318c-0.217-0.216-0.325-0.483-0.325-0.802c0-0.32,0.108-0.59,0.325-0.813
		c0.217-0.221,0.484-0.331,0.803-0.331h3.448C83.067,11.304,82.871,11.864,82.477,12.255z"/>
	<path fill="#FFFFFF" d="M90.723,8.789c-0.391,0.39-0.86,0.586-1.41,0.586h-0.834c-0.637,0-1.178,0.229-1.627,0.688
		c-0.447,0.458-0.672,1.007-0.672,1.645v2.525c0,0.57-0.207,1.063-0.618,1.475c-0.413,0.411-0.995,0.618-1.745,0.618v-4.618
		c0-1.272,0.455-2.357,1.37-3.254c0.915-0.896,2.012-1.347,3.292-1.347h2.829C91.308,7.837,91.113,8.399,90.723,8.789z"/>
	<path fill="#FFFFFF" d="M98.822,15.468c-0.78,0.571-1.673,0.856-2.678,0.856c-1.279,0-2.378-0.449-3.291-1.345
		c-0.914-0.896-1.371-1.981-1.371-3.253c0-1.273,0.457-2.36,1.371-3.265c0.913-0.902,2.012-1.356,3.291-1.356h2.83
		c0,0.731-0.195,1.293-0.586,1.683s-0.86,0.586-1.41,0.586h-0.834c-0.637,0-1.178,0.231-1.627,0.698
		c-0.448,0.467-0.673,1.018-0.673,1.654c0,0.636,0.225,1.184,0.673,1.642c0.449,0.46,0.99,0.689,1.627,0.689
		c0.644,0,1.186-0.231,1.627-0.694c0.44-0.462,0.66-1.015,0.66-1.657c0-0.572,0.207-1.064,0.619-1.478
		c0.412-0.41,0.994-0.617,1.746-0.617v6.713C99.885,16.325,99.227,16.04,98.822,15.468z"/>
	<path fill="#FFFFFF" d="M107.53,14.004v2.32h-2.364v-2.331c-1.016-0.267-1.85-0.816-2.501-1.644
		c-0.653-0.827-0.979-1.766-0.979-2.813V7.106c0.752,0,1.334,0.207,1.746,0.619c0.411,0.413,0.618,0.904,0.618,1.475v0.337
		c0,0.636,0.224,1.188,0.671,1.653c0.448,0.466,0.991,0.699,1.627,0.699c0.637,0,1.176-0.233,1.621-0.699s0.667-1.018,0.667-1.653
		V9.2c0-0.57,0.206-1.062,0.618-1.475c0.412-0.412,0.994-0.619,1.746-0.619v2.431c0,1.041-0.326,1.979-0.977,2.813
		C109.373,13.186,108.541,13.736,107.53,14.004z"/>
</g>
<g>
	<path fill="#FFFFFF" d="M67.336,23.188v-0.52h1.382c0.015-0.029,0.03-0.07,0.044-0.129c0.029-0.086,0.05-0.145,0.065-0.174h0.69
		c-0.043,0.088-0.072,0.189-0.087,0.303h2.851v0.52h-3.045c-0.014,0.027-0.035,0.07-0.064,0.129
		c-0.029,0.072-0.051,0.123-0.064,0.152h2.721v0.43c-0.289,0.289-0.626,0.541-1.015,0.756c0.445,0.104,0.95,0.168,1.513,0.195
		c-0.131,0.188-0.246,0.391-0.348,0.605c-0.734-0.057-1.382-0.209-1.942-0.453c-0.634,0.244-1.231,0.418-1.794,0.518
		c-0.042-0.086-0.113-0.203-0.215-0.346c-0.059-0.086-0.101-0.15-0.129-0.195c-0.029,0.031-0.08,0.08-0.152,0.152
		c-0.072,0.059-0.129,0.1-0.173,0.131c-0.072-0.174-0.194-0.361-0.367-0.563c0.533-0.389,0.965-0.893,1.296-1.512H67.336z
		 M67.4,20.682c1.195,0,2.721-0.027,4.578-0.086l0.152,0.541c-0.216,0-0.453,0-0.713,0l0.367,0.213
		c-0.043,0.059-0.107,0.146-0.195,0.26c-0.042,0.045-0.078,0.08-0.106,0.109h0.647v0.799h-0.713v-0.26h-3.239v0.26h-0.713v-0.799
		h0.669c-0.014-0.029-0.035-0.059-0.064-0.086c-0.043-0.072-0.086-0.145-0.129-0.217l0.475-0.215c-0.273,0-0.563,0.008-0.863,0.02
		c-0.014-0.07-0.052-0.193-0.108-0.367C67.431,20.783,67.414,20.727,67.4,20.682z M68.676,24.18
		c-0.188,0.289-0.426,0.541-0.714,0.756c0.489-0.057,0.929-0.15,1.317-0.281C69.063,24.512,68.862,24.354,68.676,24.18z
		 M68.567,21.201c0.087,0.143,0.194,0.316,0.323,0.518h0.692c-0.058-0.131-0.131-0.252-0.217-0.369l0.474-0.172
		c-0.128,0-0.322,0-0.582,0C68.956,21.193,68.725,21.201,68.567,21.201z M70.036,24.375c0.302-0.143,0.575-0.303,0.819-0.477h-1.619
		C69.467,24.088,69.733,24.244,70.036,24.375z M70.014,21.178c0.115,0.172,0.217,0.352,0.302,0.541h0.39
		c0.016-0.029,0.043-0.064,0.086-0.109c0.088-0.1,0.195-0.252,0.325-0.453C70.799,21.156,70.432,21.164,70.014,21.178z"/>
	<path fill="#FFFFFF" d="M82.248,22.105c0.086,0,0.208,0,0.367,0c0.027-0.041,0.072-0.119,0.129-0.234
		c0.086-0.146,0.151-0.252,0.195-0.326l0.41,0.217v-0.475h1.188c0-0.273,0-0.547,0-0.822h0.648c0,0.262,0,0.533,0,0.822h1.188v3.391
		c0,0.445-0.166,0.697-0.497,0.756c-0.2,0.027-0.518,0.043-0.95,0.043c-0.029-0.215-0.079-0.439-0.15-0.67
		c0.272,0.016,0.504,0.021,0.691,0.021c0.173,0,0.259-0.107,0.259-0.322v-0.52L85.4,24.223c-0.158-0.287-0.322-0.568-0.496-0.842
		c-0.145,0.375-0.332,0.67-0.561,0.887c-0.044-0.027-0.103-0.072-0.174-0.131c-0.072-0.055-0.129-0.1-0.173-0.131v1.471H83.35
		v-3.455c-0.274,0.49-0.555,0.943-0.842,1.359c0.216,0,0.445-0.02,0.689-0.064c-0.014,0.23-0.035,0.439-0.064,0.627
		c-0.576,0.043-1.014,0.117-1.316,0.215L81.6,23.598c0.174-0.158,0.396-0.461,0.67-0.908c-0.23,0.016-0.425,0.037-0.584,0.066
		l-0.193-0.584c0.23-0.26,0.525-0.822,0.885-1.686l0.628,0.24C82.744,21.244,82.492,21.703,82.248,22.105z M81.622,25.262
		l-0.13-0.67c0.173-0.031,0.446-0.064,0.82-0.107c0.389-0.059,0.692-0.102,0.906-0.131c-0.014,0.246-0.014,0.453,0,0.625
		C82.76,25.037,82.227,25.131,81.622,25.262z M83.997,21.934v1.707c0.347-0.389,0.519-0.959,0.519-1.707H83.997z M85.726,23.533
		v-1.6h-0.562c0,0.217-0.016,0.42-0.044,0.605c0.072,0.1,0.166,0.26,0.28,0.475C85.545,23.244,85.652,23.418,85.726,23.533z"/>
	<path fill="#FFFFFF" d="M96.209,22.842v-0.605h1.729v-0.475h-2.096v-0.625h2.096v-0.672h0.734v0.672h2.116v0.625h-2.116v0.475
		h1.771v0.605H96.209z M97.053,25.496h-0.693v-2.244h3.889v2.244h-0.69v-0.301h-2.505V25.496z M99.558,24.613v-0.734h-2.505v0.734
		H99.558z"/>
</g>
</svg>
