<?xml version="1.0" encoding="utf-8"?>
<!-- Generator: Adobe Illustrator 16.0.0, SVG Export Plug-In . SVG Version: 6.00 Build 0)  -->
<!DOCTYPE svg PUBLIC "-//W3C//DTD SVG 1.1//EN" "http://www.w3.org/Graphics/SVG/1.1/DTD/svg11.dtd">
<svg version="1.1" id="图层_1" xmlns="http://www.w3.org/2000/svg" xmlns:xlink="http://www.w3.org/1999/xlink" x="0px" y="0px"
	 width="88px" height="78px" viewBox="0 0 88 78" enable-background="new 0 0 88 78" xml:space="preserve">
<path fill="#3BB8AF" d="M68.941,52.275H43.475c-14.323,0-26.275-11.373-26.494-25.695C16.759,12.003,28.551,0.075,43.078,0.075
	h25.864l0,0c0,6.798-5.512,12.309-12.309,12.309H43.371c-7.505,0-13.855,5.873-14.078,13.374
	c-0.232,7.794,6.042,14.208,13.785,14.208h13.555C63.43,39.965,68.941,45.476,68.941,52.275L68.941,52.275z"/>
<path fill="#3BB8AF" d="M62.787,31.89H44.41c-3.398,0-6.154-2.754-6.154-6.154l0,0c0-3.399,2.756-6.155,6.154-6.155h18.377
	c3.398,0,6.154,2.755,6.154,6.155l0,0C68.941,29.135,66.186,31.89,62.787,31.89z"/>
<g>
	<path fill="#FFFFFF" d="M65.16,26.773h-6.272c-0.62,0-1.125-0.504-1.125-1.125l0,0c0-0.621,0.505-1.125,1.125-1.125h6.272
		c0.622,0,1.125,0.504,1.125,1.125l0,0C66.285,26.269,65.782,26.773,65.16,26.773z"/>
	<path fill="#FFFFFF" d="M60.899,28.785v-6.274c0-0.621,0.503-1.124,1.124-1.124l0,0c0.621,0,1.125,0.503,1.125,1.124v6.274
		c0,0.62-0.504,1.125-1.125,1.125l0,0C61.402,29.91,60.899,29.405,60.899,28.785z"/>
</g>
<g>
	<path fill="#3BB8AF" d="M7.68,78.203c-2.087,0-3.874-0.729-5.36-2.193c-1.486-1.462-2.229-3.231-2.229-5.309
		c0-2.075,0.743-3.849,2.229-5.323c1.486-1.476,3.273-2.213,5.36-2.213h4.635c0,1.192-0.321,2.107-0.964,2.743
		c-0.643,0.637-1.412,0.956-2.309,0.956H7.68c-1.038,0-1.919,0.379-2.645,1.14c-0.725,0.762-1.088,1.659-1.088,2.697
		c0,1.039,0.363,1.933,1.088,2.682c0.726,0.749,1.607,1.123,2.645,1.123h1.362c0.897,0,1.666,0.318,2.309,0.957
		c0.644,0.635,0.964,1.549,0.964,2.74H7.68z M11.351,71.565c-0.643,0.639-1.412,0.959-2.309,0.959H6.689
		c-0.52,0-0.956-0.175-1.309-0.523C5.026,71.65,4.85,71.216,4.85,70.692c0-0.521,0.177-0.96,0.531-1.323
		c0.353-0.361,0.79-0.542,1.309-0.542h5.625C12.315,70.012,11.994,70.925,11.351,71.565z"/>
	<path fill="#3BB8AF" d="M25.884,77.195c-0.672-0.672-1.007-1.475-1.007-2.405v-4.089c0-1.038-0.363-1.936-1.089-2.697
		c-0.725-0.761-1.607-1.14-2.644-1.14c-1.038,0-1.922,0.379-2.654,1.14c-0.732,0.762-1.097,1.659-1.097,2.697v4.089
		c0,0.931-0.336,1.733-1.009,2.405c-0.672,0.673-1.623,1.008-2.849,1.008v-7.502c0-2.086,0.746-3.864,2.238-5.332
		c1.492-1.47,3.282-2.204,5.37-2.204c2.087,0,3.875,0.737,5.36,2.213c1.486,1.475,2.23,3.248,2.23,5.323v7.502
		C27.507,78.203,26.557,77.868,25.884,77.195z"/>
	<path fill="#3BB8AF" d="M37.791,78.203c-2.088,0-3.874-0.729-5.36-2.193c-1.486-1.462-2.23-3.231-2.23-5.309
		c0-2.075,0.744-3.849,2.23-5.323c1.486-1.476,3.272-2.213,5.36-2.213h4.635c0,1.192-0.321,2.107-0.963,2.743
		c-0.643,0.637-1.413,0.956-2.309,0.956h-1.362c-1.039,0-1.919,0.379-2.645,1.14c-0.727,0.762-1.089,1.659-1.089,2.697
		c0,1.039,0.363,1.933,1.089,2.682c0.725,0.749,1.606,1.123,2.645,1.123h1.362c0.896,0,1.667,0.318,2.309,0.957
		c0.642,0.635,0.963,1.549,0.963,2.74H37.791z M41.462,71.565c-0.643,0.639-1.413,0.959-2.309,0.959H36.8
		c-0.52,0-0.956-0.175-1.309-0.523c-0.354-0.351-0.531-0.785-0.531-1.309c0-0.521,0.177-0.96,0.531-1.323
		c0.353-0.361,0.789-0.542,1.309-0.542h5.625C42.426,70.012,42.104,70.925,41.462,71.565z"/>
	<path fill="#3BB8AF" d="M54.917,65.908c-0.639,0.637-1.403,0.956-2.301,0.956h-1.36c-1.039,0-1.925,0.374-2.654,1.123
		c-0.731,0.747-1.098,1.643-1.098,2.681v4.122c0,0.931-0.337,1.733-1.009,2.405c-0.672,0.673-1.622,1.008-2.849,1.008v-7.535
		c0-2.075,0.746-3.846,2.237-5.309c1.492-1.462,3.282-2.194,5.372-2.194h4.616C55.872,64.357,55.553,65.272,54.917,65.908z"/>
	<path fill="#3BB8AF" d="M68.132,76.807c-1.274,0.932-2.731,1.396-4.37,1.396c-2.087,0-3.877-0.729-5.369-2.193
		c-1.492-1.462-2.239-3.231-2.239-5.309c0-2.075,0.747-3.849,2.239-5.323c1.492-1.476,3.282-2.213,5.369-2.213h4.618
		c0,1.192-0.319,2.107-0.955,2.743c-0.638,0.637-1.405,0.956-2.302,0.956h-1.361c-1.038,0-1.922,0.379-2.653,1.14
		c-0.732,0.762-1.097,1.659-1.097,2.697c0,1.039,0.364,1.933,1.097,2.682c0.731,0.749,1.615,1.123,2.653,1.123
		c1.05,0,1.935-0.378,2.654-1.133c0.718-0.754,1.078-1.656,1.078-2.705c0-0.932,0.337-1.734,1.009-2.406
		c0.673-0.673,1.622-1.01,2.85-1.01v10.951C69.865,78.203,68.791,77.738,68.132,76.807z"/>
	<path fill="#3BB8AF" d="M82.337,74.417v3.786H78.48v-3.805c-1.656-0.434-3.017-1.328-4.081-2.679s-1.597-2.881-1.597-4.591v-3.964
		c1.226,0,2.175,0.336,2.847,1.01c0.674,0.671,1.011,1.474,1.011,2.406v0.548c0,1.038,0.364,1.938,1.095,2.697
		c0.731,0.761,1.616,1.142,2.655,1.142c1.037,0,1.919-0.381,2.646-1.142c0.725-0.76,1.086-1.659,1.086-2.697v-0.548
		c0-0.933,0.337-1.735,1.01-2.406c0.672-0.674,1.622-1.01,2.849-1.01v3.964c0,1.698-0.532,3.229-1.593,4.591
		C85.346,73.083,83.99,73.98,82.337,74.417z"/>
</g>
</svg>
