<svg id="图层_1" data-name="图层 1" xmlns="http://www.w3.org/2000/svg" viewBox="0 0 87.91 78.13"><defs><style>.cls-1{fill:#fff;}.cls-2{fill:#2ac7b2;}</style></defs><title>logo</title><path class="cls-1" d="M68.94,52.28H43.47A26.36,26.36,0,0,1,17,26.58,26.13,26.13,0,0,1,43.08.08H68.94A12.31,12.31,0,0,1,56.63,12.38H43.37A14,14,0,0,0,29.29,25.76,13.81,13.81,0,0,0,43.08,40H56.63A12.31,12.31,0,0,1,68.94,52.28Z" transform="translate(-0.09 -0.08)"/><path class="cls-1" d="M62.79,31.89H44.41a6.15,6.15,0,0,1-6.15-6.15h0a6.16,6.16,0,0,1,6.15-6.16H62.79a6.15,6.15,0,0,1,6.15,6.16h0A6.15,6.15,0,0,1,62.79,31.89Z" transform="translate(-0.09 -0.08)"/><path class="cls-2" d="M65.16,26.77H58.89a1.13,1.13,0,0,1-1.12-1.12h0a1.13,1.13,0,0,1,1.13-1.12h6.27a1.12,1.12,0,0,1,1.13,1.13h0A1.12,1.12,0,0,1,65.16,26.77Z" transform="translate(-0.09 -0.08)"/><path class="cls-2" d="M60.9,28.78V22.51A1.12,1.12,0,0,1,62,21.39h0a1.12,1.12,0,0,1,1.13,1.12v6.27A1.13,1.13,0,0,1,62,29.91h0A1.13,1.13,0,0,1,60.9,28.78Z" transform="translate(-0.09 -0.08)"/><path class="cls-1" d="M7.68,78.2A7.36,7.36,0,0,1,2.32,76a7.45,7.45,0,0,1,0-10.63,7.33,7.33,0,0,1,5.36-2.21h4.64a3.69,3.69,0,0,1-1,2.74,3.16,3.16,0,0,1-2.31,1H7.68A3.52,3.52,0,0,0,5,68a3.78,3.78,0,0,0-1.09,2.7A3.72,3.72,0,0,0,5,73.38a3.54,3.54,0,0,0,2.64,1.12H9a3.16,3.16,0,0,1,2.31,1,3.68,3.68,0,0,1,1,2.74Zm3.67-6.64a3.16,3.16,0,0,1-2.31,1H6.69A1.79,1.79,0,0,1,5.38,72a1.76,1.76,0,0,1-.53-1.31,1.82,1.82,0,0,1,.53-1.32,1.76,1.76,0,0,1,1.31-.54h5.63A3.69,3.69,0,0,1,11.35,71.57Z" transform="translate(-0.09 -0.08)"/><path class="cls-1" d="M25.88,77.19a3.28,3.28,0,0,1-1-2.4V70.7A3.78,3.78,0,0,0,23.79,68a3.65,3.65,0,0,0-5.3,0,3.76,3.76,0,0,0-1.1,2.7v4.09a3.28,3.28,0,0,1-1,2.4,3.85,3.85,0,0,1-2.85,1V70.7a7.2,7.2,0,0,1,2.24-5.33,7.38,7.38,0,0,1,5.37-2.2,7.33,7.33,0,0,1,5.36,2.21,7.23,7.23,0,0,1,2.23,5.32v7.5A3.85,3.85,0,0,1,25.88,77.19Z" transform="translate(-0.09 -0.08)"/><path class="cls-1" d="M37.79,78.2A7.36,7.36,0,0,1,32.43,76a7.45,7.45,0,0,1,0-10.63,7.33,7.33,0,0,1,5.36-2.21h4.64a3.69,3.69,0,0,1-1,2.74,3.17,3.17,0,0,1-2.31,1H37.79A3.52,3.52,0,0,0,35.15,68a3.77,3.77,0,0,0-1.09,2.7,3.72,3.72,0,0,0,1.09,2.68,3.54,3.54,0,0,0,2.65,1.12h1.36a3.16,3.16,0,0,1,2.31,1,3.69,3.69,0,0,1,1,2.74Zm3.67-6.64a3.16,3.16,0,0,1-2.31,1H36.8A1.79,1.79,0,0,1,35.49,72,1.77,1.77,0,0,1,35,70.69a1.82,1.82,0,0,1,.53-1.32,1.76,1.76,0,0,1,1.31-.54h5.63A3.69,3.69,0,0,1,41.46,71.57Z" transform="translate(-0.09 -0.08)"/><path class="cls-1" d="M54.92,65.91a3.14,3.14,0,0,1-2.3,1H51.26A3.57,3.57,0,0,0,48.6,68a3.7,3.7,0,0,0-1.1,2.68v4.12a3.28,3.28,0,0,1-1,2.4,3.85,3.85,0,0,1-2.85,1V70.67a7.17,7.17,0,0,1,2.24-5.31,7.4,7.4,0,0,1,5.37-2.19h4.62A3.71,3.71,0,0,1,54.92,65.91Z" transform="translate(-0.09 -0.08)"/><path class="cls-1" d="M68.13,76.81a7.21,7.21,0,0,1-4.37,1.4A7.39,7.39,0,0,1,58.39,76a7.43,7.43,0,0,1,0-10.63,7.36,7.36,0,0,1,5.37-2.21h4.62a3.71,3.71,0,0,1-1,2.74,3.14,3.14,0,0,1-2.3,1H63.76A3.54,3.54,0,0,0,61.11,68,3.76,3.76,0,0,0,60,70.7a3.7,3.7,0,0,0,1.1,2.68,3.57,3.57,0,0,0,2.65,1.12,3.52,3.52,0,0,0,2.65-1.13,3.79,3.79,0,0,0,1.08-2.71,3.29,3.29,0,0,1,1-2.41,3.85,3.85,0,0,1,2.85-1v11A3.67,3.67,0,0,1,68.13,76.81Z" transform="translate(-0.09 -0.08)"/><path class="cls-1" d="M82.34,74.42V78.2H78.48V74.4a7.48,7.48,0,0,1-4.08-2.68,7.22,7.22,0,0,1-1.6-4.59v-4a3.84,3.84,0,0,1,2.85,1,3.28,3.28,0,0,1,1,2.41v.55a3.76,3.76,0,0,0,1.1,2.7,3.65,3.65,0,0,0,5.3,0,3.77,3.77,0,0,0,1.09-2.7v-.55a3.28,3.28,0,0,1,1-2.41,3.85,3.85,0,0,1,2.85-1v4a7.28,7.28,0,0,1-1.59,4.59A7.44,7.44,0,0,1,82.34,74.42Z" transform="translate(-0.09 -0.08)"/></svg>