<?xml version="1.0" encoding="utf-8"?>
<!-- Generator: Adobe Illustrator 21.0.0, SVG Export Plug-In . SVG Version: 6.00 Build 0)  -->
<svg version="1.1" id="图层_1" xmlns="http://www.w3.org/2000/svg" xmlns:xlink="http://www.w3.org/1999/xlink" x="0px" y="0px"
	 viewBox="0 0 125 133" style="enable-background:new 0 0 125 133;" xml:space="preserve">
<style type="text/css">
	.st0{fill:#D4145A;}
	.st1{fill:#FFFFFF;}
</style>
<path class="st0" d="M98.1,74.4H61.7c-20.5,0-37.5-16.2-37.8-36.7C23.6,16.9,40.4-0.2,61.1-0.2h36.9l0,0c0,9.7-7.9,17.6-17.6,17.6
	H61.6c-10.7,0-19.8,8.4-20.1,19.1c-0.3,11.1,8.6,20.3,19.7,20.3h19.4C90.2,56.8,98.1,64.7,98.1,74.4L98.1,74.4z"/>
<path class="st0" d="M89.3,45.3H63.1c-4.9,0-8.8-3.9-8.8-8.8l0,0c0-4.9,3.9-8.8,8.8-8.8h26.2c4.9,0,8.8,3.9,8.8,8.8l0,0
	C98.1,41.3,94.1,45.3,89.3,45.3z"/>
<g>
	<path class="st1" d="M92.7,37.9h-9c-0.9,0-1.6-0.7-1.6-1.6l0,0c0-0.9,0.7-1.6,1.6-1.6h9c0.9,0,1.6,0.7,1.6,1.6l0,0
		C94.3,37.2,93.6,37.9,92.7,37.9z"/>
	<path class="st1" d="M86.6,40.8v-9c0-0.9,0.7-1.6,1.6-1.6l0,0c0.9,0,1.6,0.7,1.6,1.6v9c0,0.9-0.7,1.6-1.6,1.6l0,0
		C87.3,42.4,86.6,41.7,86.6,40.8z"/>
</g>
<g>
	<path class="st0" d="M10.6,111.4c-3,0-5.5-1-7.7-3.1c-2.1-2.1-3.2-4.6-3.2-7.6c0-3,1.1-5.5,3.2-7.6c2.1-2.1,4.7-3.2,7.7-3.2h6.6
		c0,1.7-0.5,3-1.4,3.9c-0.9,0.9-2,1.4-3.3,1.4h-1.9c-1.5,0-2.7,0.5-3.8,1.6c-1,1.1-1.6,2.4-1.6,3.9c0,1.5,0.5,2.8,1.6,3.8
		c1,1.1,2.3,1.6,3.8,1.6h1.9c1.3,0,2.4,0.5,3.3,1.4c0.9,0.9,1.4,2.2,1.4,3.9H10.6z M15.8,101.9c-0.9,0.9-2,1.4-3.3,1.4H9.2
		c-0.7,0-1.4-0.2-1.9-0.7c-0.5-0.5-0.8-1.1-0.8-1.9c0-0.7,0.3-1.4,0.8-1.9C7.8,98.3,8.4,98,9.2,98h8C17.2,99.7,16.8,101,15.8,101.9z
		"/>
	<path class="st0" d="M36.6,110c-1-1-1.4-2.1-1.4-3.4v-5.8c0-1.5-0.5-2.8-1.6-3.9c-1-1.1-2.3-1.6-3.8-1.6c-1.5,0-2.7,0.5-3.8,1.6
		c-1,1.1-1.6,2.4-1.6,3.9v5.8c0,1.3-0.5,2.5-1.4,3.4c-1,1-2.3,1.4-4.1,1.4v-10.7c0-3,1.1-5.5,3.2-7.6c2.1-2.1,4.7-3.1,7.7-3.1
		c3,0,5.5,1.1,7.7,3.2c2.1,2.1,3.2,4.6,3.2,7.6v10.7C38.9,111.4,37.6,110.9,36.6,110z"/>
	<path class="st0" d="M53.6,111.4c-3,0-5.5-1-7.7-3.1c-2.1-2.1-3.2-4.6-3.2-7.6c0-3,1.1-5.5,3.2-7.6c2.1-2.1,4.7-3.2,7.7-3.2h6.6
		c0,1.7-0.5,3-1.4,3.9c-0.9,0.9-2,1.4-3.3,1.4h-1.9c-1.5,0-2.7,0.5-3.8,1.6c-1,1.1-1.6,2.4-1.6,3.9c0,1.5,0.5,2.8,1.6,3.8
		c1,1.1,2.3,1.6,3.8,1.6h1.9c1.3,0,2.4,0.5,3.3,1.4c0.9,0.9,1.4,2.2,1.4,3.9H53.6z M58.8,101.9c-0.9,0.9-2,1.4-3.3,1.4h-3.4
		c-0.7,0-1.4-0.2-1.9-0.7c-0.5-0.5-0.8-1.1-0.8-1.9c0-0.7,0.3-1.4,0.8-1.9c0.5-0.5,1.1-0.8,1.9-0.8h8C60.2,99.7,59.8,101,58.8,101.9
		z"/>
	<path class="st0" d="M78.1,93.8c-0.9,0.9-2,1.4-3.3,1.4h-1.9c-1.5,0-2.7,0.5-3.8,1.6c-1,1.1-1.6,2.3-1.6,3.8v5.9
		c0,1.3-0.5,2.5-1.4,3.4c-1,1-2.3,1.4-4.1,1.4v-10.8c0-3,1.1-5.5,3.2-7.6c2.1-2.1,4.7-3.1,7.7-3.1h6.6C79.4,91.6,79,92.9,78.1,93.8z
		"/>
	<path class="st0" d="M96.9,109.4c-1.8,1.3-3.9,2-6.2,2c-3,0-5.5-1-7.7-3.1c-2.1-2.1-3.2-4.6-3.2-7.6c0-3,1.1-5.5,3.2-7.6
		c2.1-2.1,4.7-3.2,7.7-3.2h6.6c0,1.7-0.5,3-1.4,3.9c-0.9,0.9-2,1.4-3.3,1.4h-1.9c-1.5,0-2.7,0.5-3.8,1.6c-1,1.1-1.6,2.4-1.6,3.9
		c0,1.5,0.5,2.8,1.6,3.8c1,1.1,2.3,1.6,3.8,1.6c1.5,0,2.8-0.5,3.8-1.6c1-1.1,1.5-2.4,1.5-3.9c0-1.3,0.5-2.5,1.4-3.4
		c1-1,2.3-1.4,4.1-1.4v15.6C99.4,111.4,97.9,110.7,96.9,109.4z"/>
	<path class="st0" d="M117.2,106v5.4h-5.5V106c-2.4-0.6-4.3-1.9-5.8-3.8c-1.5-1.9-2.3-4.1-2.3-6.6v-5.7c1.8,0,3.1,0.5,4.1,1.4
		c1,1,1.4,2.1,1.4,3.4v0.8c0,1.5,0.5,2.8,1.6,3.9c1,1.1,2.3,1.6,3.8,1.6c1.5,0,2.7-0.5,3.8-1.6c1-1.1,1.6-2.4,1.6-3.9v-0.8
		c0-1.3,0.5-2.5,1.4-3.4c1-1,2.3-1.4,4.1-1.4v5.7c0,2.4-0.8,4.6-2.3,6.6C121.5,104.1,119.6,105.4,117.2,106z"/>
</g>
<g>
	<path class="st0" d="M23.6,127.4v-1.2h3.2c0-0.1,0.1-0.2,0.1-0.3c0.1-0.2,0.1-0.3,0.2-0.4h1.6c-0.1,0.2-0.2,0.4-0.2,0.7h6.6v1.2H28
		c0,0.1-0.1,0.2-0.2,0.3c-0.1,0.2-0.1,0.3-0.2,0.4H34v1c-0.7,0.7-1.5,1.3-2.4,1.8c1,0.2,2.2,0.4,3.5,0.5c-0.3,0.4-0.6,0.9-0.8,1.4
		c-1.7-0.1-3.2-0.5-4.5-1.1c-1.5,0.6-2.9,1-4.2,1.2c-0.1-0.2-0.3-0.5-0.5-0.8c-0.1-0.2-0.2-0.4-0.3-0.5c-0.1,0.1-0.2,0.2-0.4,0.4
		c-0.2,0.1-0.3,0.2-0.4,0.3c-0.2-0.4-0.5-0.8-0.9-1.3c1.2-0.9,2.2-2.1,3-3.5H23.6z M23.7,121.5c2.8,0,6.3-0.1,10.7-0.2l0.4,1.3
		c-0.5,0-1.1,0-1.7,0l0.9,0.5c-0.1,0.1-0.3,0.3-0.5,0.6c-0.1,0.1-0.2,0.2-0.3,0.3h1.5v1.9h-1.7v-0.6h-7.5v0.6h-1.7V124h1.6
		c0-0.1-0.1-0.1-0.2-0.2c-0.1-0.2-0.2-0.3-0.3-0.5l1.1-0.5c-0.6,0-1.3,0-2,0.1c0-0.2-0.1-0.5-0.3-0.9
		C23.8,121.8,23.8,121.6,23.7,121.5z M26.7,129.7c-0.4,0.7-1,1.3-1.7,1.8c1.1-0.1,2.2-0.4,3.1-0.7C27.6,130.5,27.1,130.1,26.7,129.7
		z M26.4,122.8c0.2,0.3,0.5,0.7,0.8,1.2h1.6c-0.1-0.3-0.3-0.6-0.5-0.9l1.1-0.4c-0.3,0-0.8,0-1.4,0C27.3,122.7,26.8,122.8,26.4,122.8
		z M29.9,130.1c0.7-0.3,1.3-0.7,1.9-1.1H28C28.5,129.5,29.2,129.8,29.9,130.1z M29.8,122.7c0.3,0.4,0.5,0.8,0.7,1.3h0.9
		c0-0.1,0.1-0.2,0.2-0.3c0.2-0.2,0.5-0.6,0.8-1.1C31.6,122.7,30.8,122.7,29.8,122.7z"/>
	<path class="st0" d="M58.3,124.9c0.2,0,0.5,0,0.9,0c0.1-0.1,0.2-0.3,0.3-0.6c0.2-0.3,0.4-0.6,0.5-0.8l1,0.5V123h2.8
		c0-0.6,0-1.3,0-1.9h1.5c0,0.6,0,1.2,0,1.9h2.8v7.9c0,1-0.4,1.6-1.2,1.8c-0.5,0.1-1.2,0.1-2.2,0.1c-0.1-0.5-0.2-1-0.4-1.6
		c0.6,0,1.2,0.1,1.6,0.1c0.4,0,0.6-0.3,0.6-0.8v-1.2l-0.8,0.6c-0.4-0.7-0.8-1.3-1.2-2c-0.3,0.9-0.8,1.6-1.3,2.1
		c-0.1-0.1-0.2-0.2-0.4-0.3c-0.2-0.1-0.3-0.2-0.4-0.3v3.4h-1.5v-8.1c-0.6,1.1-1.3,2.2-2,3.2c0.5,0,1-0.1,1.6-0.2
		c0,0.5-0.1,1-0.2,1.5c-1.3,0.1-2.4,0.3-3.1,0.5l-0.5-1.3c0.4-0.4,0.9-1.1,1.6-2.1c-0.5,0-1,0.1-1.4,0.2l-0.5-1.4
		c0.5-0.6,1.2-1.9,2.1-3.9l1.5,0.6C59.5,122.9,58.9,123.9,58.3,124.9z M56.8,132.2l-0.3-1.6c0.4-0.1,1-0.2,1.9-0.3
		c0.9-0.1,1.6-0.2,2.1-0.3c0,0.6,0,1.1,0,1.5C59.5,131.7,58.3,131.9,56.8,132.2z M62.4,124.5v4c0.8-0.9,1.2-2.2,1.2-4H62.4z
		 M66.4,128.2v-3.7h-1.3c0,0.5,0,1-0.1,1.4c0.2,0.2,0.4,0.6,0.7,1.1C66,127.5,66.2,127.9,66.4,128.2z"/>
	<path class="st0" d="M90.8,126.6v-1.4h4v-1.1H90v-1.5h4.9V121h1.7v1.6h4.9v1.5h-4.9v1.1h4.1v1.4H90.8z M92.8,132.8h-1.6v-5.2h9.1
		v5.2h-1.6v-0.7h-5.8V132.8z M98.6,130.7V129h-5.8v1.7H98.6z"/>
</g>
</svg>
